<?xml version="1.0" standalone="no"?>
<!DOCTYPE svg PUBLIC "-//W3C//DTD SVG 20010904//EN"
 "http://www.w3.org/TR/2001/REC-SVG-20010904/DTD/svg10.dtd">
<svg version="1.0" xmlns="http://www.w3.org/2000/svg"
 width="720.000000pt" height="720.000000pt" viewBox="0 0 720.000000 720.000000"
 preserveAspectRatio="xMidYMid meet">
<metadata>
Created by potrace 1.14, written by Peter Selinger 2001-2017
</metadata>
<g transform="translate(0.000000,720.000000) scale(0.100000,-0.100000)"
fill="#000000" stroke="none">
<path d="M2790 6947 c-97 -33 -155 -82 -214 -181 -35 -59 -80 -181 -90 -246
-28 -182 -24 -399 10 -512 3 -9 6 -25 8 -35 17 -87 93 -264 152 -353 39 -60
168 -200 184 -200 4 0 17 -9 30 -20 44 -38 162 -61 237 -46 57 11 132 52 165
89 25 29 95 131 95 137 0 3 7 21 15 40 49 108 72 227 72 375 0 174 -13 273
-58 415 -64 200 -191 391 -323 481 -85 59 -206 83 -283 56z"/>
<path d="M4196 6946 c-94 -35 -194 -122 -273 -239 -82 -120 -157 -290 -179
-402 -46 -247 -38 -469 23 -635 33 -88 86 -181 126 -222 94 -95 227 -120 360
-69 42 16 137 92 188 150 45 51 139 199 139 220 0 6 5 11 12 11 6 0 9 3 6 6
-4 3 4 29 17 58 27 61 64 183 70 229 2 18 7 57 11 87 9 67 8 277 -1 343 -9 71
-52 193 -96 272 -74 137 -158 195 -289 202 -49 2 -88 -2 -114 -11z"/>
<path d="M1874 5811 c-23 -10 -54 -29 -68 -42 -25 -22 -69 -84 -72 -101 -1 -5
-3 -9 -4 -10 -1 -2 -4 -12 -6 -23 -2 -11 -11 -49 -20 -85 -23 -94 -16 -205 25
-354 61 -223 217 -443 371 -525 65 -35 161 -60 205 -54 159 22 247 173 240
412 -4 125 -14 179 -56 299 -116 329 -425 571 -615 483z"/>
<path d="M5120 5811 c-93 -30 -126 -51 -214 -136 -41 -41 -103 -115 -121 -146
-5 -10 -22 -39 -37 -65 -16 -25 -28 -52 -28 -58 0 -7 -5 -17 -12 -24 -18 -18
-58 -151 -76 -252 -8 -47 -8 -196 0 -240 34 -187 152 -291 303 -266 208 34
437 297 516 593 22 80 32 282 17 348 -44 203 -180 299 -348 246z"/>
<path d="M3420 5339 c-138 -13 -250 -60 -400 -165 -155 -109 -322 -312 -509
-617 -22 -37 -41 -71 -41 -76 0 -5 -3 -11 -7 -13 -23 -10 -197 -399 -230 -513
-37 -128 -38 -264 -2 -378 13 -42 27 -77 31 -77 5 0 8 -7 8 -16 0 -16 38 -76
52 -82 4 -2 8 -9 8 -16 0 -17 116 -128 180 -170 62 -42 134 -77 218 -105 82
-27 123 -34 246 -36 134 -2 230 18 375 81 188 80 282 79 488 -10 168 -72 353
-89 548 -51 58 11 242 91 265 115 3 3 30 25 60 50 95 78 150 149 197 255 59
133 69 276 32 420 -30 113 -169 419 -266 583 -24 41 -43 75 -43 77 0 15 -231
345 -269 385 -9 9 -28 30 -42 46 -112 127 -328 246 -504 280 -11 2 -31 6 -45
9 -56 12 -75 14 -173 21 -56 3 -104 7 -107 8 -3 1 -34 -1 -70 -5z"/>
<path d="M6413 3478 c-56 -9 -80 -23 -97 -57 -14 -27 -18 -70 -6 -72 42 -6 53
-3 68 19 23 36 58 46 87 24 43 -31 32 -56 -54 -124 -79 -63 -101 -91 -107
-138 -6 -48 17 -58 129 -58 56 1 108 5 115 11 6 5 12 22 12 38 l0 29 -80 0
c-44 0 -80 4 -80 8 0 4 19 23 42 42 101 83 133 130 123 181 -13 64 -83 109
-152 97z"/>
<path d="M480 3470 l-55 -5 2 -185 c1 -159 4 -186 18 -196 18 -13 198 -15 210
-2 11 10 13 58 3 64 -5 3 -40 6 -78 5 -74 -1 -78 2 -75 59 l2 35 54 2 c30 1
64 2 77 2 18 1 22 7 22 35 l0 35 -52 -1 c-104 -1 -100 -3 -96 45 l3 42 73 0
72 0 0 31 0 32 -62 4 c-35 1 -88 1 -118 -2z"/>
<path d="M798 3466 c-37 -19 -62 -63 -61 -107 1 -52 22 -75 101 -110 67 -30
91 -62 67 -88 -19 -20 -82 -6 -90 20 -8 23 -47 41 -70 32 -17 -6 -16 -39 3
-84 21 -51 123 -74 188 -43 78 37 78 167 -1 199 -19 9 -37 15 -40 15 -11 -1
-62 29 -73 43 -27 32 23 75 63 55 11 -6 27 -18 35 -28 8 -10 26 -20 40 -22 22
-3 25 1 28 29 6 64 -32 95 -121 98 -26 1 -57 -3 -69 -9z"/>
<path d="M1373 3466 c-9 -10 -13 -65 -14 -178 -2 -195 -3 -183 16 -202 12 -12
33 -14 95 -11 135 7 155 33 155 204 -1 143 -1 143 -47 180 -26 20 -189 26
-205 7z m155 -74 c16 -16 20 -36 21 -116 2 -74 -1 -100 -13 -111 -18 -18 -80
-20 -94 -2 -5 6 -11 64 -11 128 l-2 115 40 2 c29 2 46 -3 59 -16z"/>
<path d="M5715 3471 c-42 -18 -81 -85 -65 -111 13 -21 51 -18 75 6 32 32 75
42 90 20 14 -18 9 -54 -10 -73 -6 -6 -40 -34 -74 -63 -59 -49 -82 -81 -87
-125 -6 -50 -2 -52 125 -51 66 1 121 3 124 6 2 3 7 14 11 26 10 32 -14 44 -88
45 -36 1 -66 4 -66 9 0 4 21 24 47 46 76 63 102 94 109 130 9 46 -13 102 -47
123 -31 19 -112 25 -144 12z"/>
<path d="M6021 3454 c-35 -30 -47 -76 -45 -179 4 -161 25 -196 124 -201 82 -4
129 41 135 130 2 28 5 53 6 56 1 3 1 8 1 11 -21 174 -39 202 -140 205 -43 2
-58 -2 -81 -22z m113 -70 c12 -12 16 -37 16 -109 0 -90 -1 -95 -25 -111 -25
-16 -27 -16 -51 7 -24 23 -26 29 -22 110 3 89 15 119 49 119 9 0 25 -7 33 -16z"/>
<path d="M6635 3471 c-13 -4 -20 -15 -21 -34 -1 -23 4 -29 27 -34 l29 -5 0
-159 0 -159 26 -6 c14 -4 30 -2 37 5 17 17 15 367 -1 383 -14 14 -64 18 -97 9z"/>
<path d="M1052 3438 c3 -29 6 -32 35 -33 18 0 36 -4 40 -9 4 -4 8 -74 8 -154
0 -81 4 -152 8 -159 8 -13 45 -9 60 6 4 4 9 77 9 160 1 147 1 151 22 152 11 1
25 1 30 0 4 -1 16 1 27 4 14 5 16 11 9 30 -5 12 -6 26 -3 29 4 3 -51 6 -121 6
l-127 0 3 -32z"/>
<path d="M3649 2526 c-2 -2 -41 -6 -85 -10 -114 -9 -201 -42 -256 -100 -34
-34 -78 -108 -88 -146 -39 -148 -46 -491 -15 -690 10 -58 35 -139 45 -145 6
-4 8 -11 4 -16 -3 -5 21 -35 53 -67 46 -46 71 -62 122 -79 85 -27 261 -31 340
-7 137 40 232 147 262 294 13 64 13 88 0 122 -9 23 -12 24 -104 23 -111 -1
-121 -7 -141 -76 -17 -55 -46 -109 -59 -109 -5 0 -15 -7 -23 -15 -15 -15 -42
-19 -122 -17 -71 1 -128 51 -138 122 -24 164 -20 516 6 586 23 59 90 95 165
87 28 -2 56 -5 64 -5 25 -2 86 -72 101 -117 19 -58 44 -72 133 -75 88 -3 114
5 123 38 14 57 -36 202 -94 271 -51 62 -142 108 -230 118 -23 3 -45 8 -50 11
-5 3 -11 4 -13 2z"/>
<path d="M114 2500 c-12 -5 -26 -15 -30 -22 -5 -7 -9 -274 -10 -593 -1 -463 1
-584 11 -599 11 -14 31 -18 100 -20 134 -5 127 -17 129 256 0 125 5 230 9 234
5 5 43 9 85 10 125 3 176 7 192 15 8 4 29 9 47 12 50 8 132 57 174 105 68 78
93 177 76 307 -25 196 -120 273 -360 290 -142 11 -402 14 -423 5z m391 -231
c76 -4 132 -52 148 -127 12 -52 -32 -129 -79 -139 -45 -10 -219 -10 -240 -1
-22 11 -23 14 -20 127 2 64 4 120 5 124 3 21 49 25 186 16z"/>
<path d="M1113 2484 c-21 -21 -21 -27 -18 -230 8 -454 22 -686 47 -764 39
-125 129 -206 253 -224 98 -15 237 -18 283 -6 100 28 203 115 242 206 30 69
36 129 35 362 0 116 2 212 6 212 3 0 5 99 5 221 -1 264 7 249 -131 249 -142 0
-130 44 -127 -442 2 -491 3 -488 -94 -568 -13 -10 -41 -15 -89 -15 -114 1
-162 49 -171 169 -3 33 -7 232 -10 441 -4 209 -11 388 -16 398 -8 16 -21 18
-101 15 -78 -3 -95 -6 -114 -24z"/>
<path d="M2213 2503 c-11 -2 -26 -16 -32 -31 -7 -18 -11 -217 -13 -600 -2
-522 0 -574 15 -589 12 -13 37 -17 99 -18 72 -2 84 0 104 20 22 22 22 28 22
239 0 149 3 221 11 229 6 6 55 12 118 14 117 2 222 22 281 53 53 28 116 95
149 160 26 50 28 64 28 165 0 100 -3 115 -27 166 -46 93 -130 158 -228 176
-56 10 -489 23 -527 16z m460 -251 c48 -28 70 -65 73 -123 2 -64 -22 -103 -75
-120 -51 -17 -190 -20 -227 -4 l-31 13 -1 103 c-1 125 3 146 26 151 45 11 207
-3 235 -20z"/>
<path d="M4604 2495 c-16 -7 -34 -18 -40 -26 -9 -11 -121 -348 -140 -419 -2
-8 -15 -49 -29 -90 -15 -41 -28 -83 -30 -93 -2 -10 -13 -44 -24 -75 -10 -31
-42 -131 -71 -222 -29 -91 -59 -186 -67 -212 -8 -25 -13 -55 -11 -64 4 -21 47
-46 61 -37 6 3 40 5 76 4 55 -2 70 1 88 18 19 18 46 89 68 183 4 15 13 32 21
38 20 18 353 15 369 -2 7 -7 25 -51 40 -98 39 -121 50 -130 167 -137 138 -8
137 -19 39 279 -44 134 -86 262 -95 285 -8 22 -12 44 -9 47 4 3 2 6 -4 6 -5 0
-10 6 -10 13 -1 11 -96 303 -110 337 -3 8 -7 17 -8 20 0 3 -9 30 -20 60 -11
30 -20 57 -20 60 -1 3 -5 14 -9 25 -4 11 -12 32 -18 47 -18 49 -44 63 -118 64
-37 1 -81 -4 -96 -11z m141 -560 c31 -88 57 -164 58 -170 1 -5 -45 -9 -110
-10 -128 0 -124 -4 -94 84 11 31 34 102 51 159 17 57 33 102 35 100 1 -2 28
-75 60 -163z"/>
<path d="M5398 2504 c-9 -3 -21 -17 -26 -32 -15 -43 -10 -1178 5 -1193 24 -24
219 -16 224 9 1 4 3 106 4 227 2 121 3 222 4 224 1 4 171 -228 201 -274 67
-104 113 -163 138 -177 39 -23 201 -30 242 -10 40 19 35 28 -118 234 -70 95
-137 188 -147 206 -11 17 -23 32 -27 32 -4 0 -8 4 -8 10 0 5 34 25 75 44 87
40 152 97 184 161 28 57 32 74 36 168 3 81 -10 148 -39 204 -19 38 -94 113
-113 113 -7 0 -13 5 -13 12 0 6 -3 9 -6 5 -4 -3 -23 0 -43 8 -20 8 -56 17 -81
20 -59 8 -470 15 -492 9z m467 -245 c49 -23 75 -63 82 -129 5 -43 2 -55 -20
-84 -35 -45 -75 -52 -277 -43 l-45 2 2 125 c2 153 1 151 128 150 65 -1 101 -7
130 -21z"/>
<path d="M6389 2493 c-12 -13 -14 -121 -14 -610 0 -517 2 -595 15 -603 9 -6
157 -10 351 -10 266 0 339 3 354 14 15 11 18 28 19 106 2 99 -6 119 -47 121
-12 1 -118 1 -234 1 -151 0 -213 4 -214 12 -7 64 -2 266 6 267 6 0 110 1 233
2 169 2 225 5 231 15 4 7 9 36 10 65 1 29 4 67 6 85 3 23 -2 39 -15 52 -21 21
-25 22 -338 23 l-133 0 2 104 c2 92 5 106 23 119 16 11 65 14 232 14 171 0
214 3 223 14 15 18 20 160 8 199 l-9 27 -348 0 c-311 0 -349 -2 -361 -17z"/>
<path d="M58 739 c-46 -17 -59 -63 -57 -204 l1 -126 32 -32 c17 -18 41 -39 54
-47 12 -8 22 -24 22 -37 0 -45 83 -72 107 -35 9 16 8 21 -9 33 -11 8 -27 19
-36 26 -10 6 -15 13 -12 15 3 2 23 12 44 23 53 27 63 62 62 205 -1 125 -9 149
-61 176 -31 16 -107 17 -147 3z m118 -104 c10 -15 15 -48 15 -92 0 -85 -1 -94
-25 -116 -25 -22 -41 -22 -66 3 -26 26 -33 59 -28 130 7 96 64 136 104 75z"/>
<path d="M359 742 c-14 -6 -16 -24 -12 -137 2 -71 5 -141 7 -155 2 -14 4 -31
5 -38 4 -44 101 -82 171 -67 36 8 89 56 91 82 6 81 4 292 -3 306 -10 20 -51
23 -66 4 -6 -7 -10 -67 -10 -148 0 -151 -10 -179 -63 -179 -53 0 -56 14 -59
313 0 21 -5 27 -22 26 -13 0 -30 -3 -39 -7z"/>
<path d="M765 741 c-58 -24 -72 -75 -71 -261 1 -133 1 -135 24 -138 27 -4 53
15 51 37 -1 9 -1 33 0 53 l1 38 58 -1 59 -1 -1 -47 c-2 -65 9 -84 42 -76 15 3
31 10 35 14 8 8 10 233 3 281 -8 52 -26 81 -61 95 -37 16 -108 19 -140 6z m91
-79 c15 -9 49 -101 41 -109 -6 -6 -128 -5 -134 1 -5 5 26 88 38 103 12 14 38
17 55 5z"/>
<path d="M1046 732 c-7 -28 0 -346 8 -364 10 -21 4 -20 86 -23 36 -1 72 1 81
6 21 11 13 59 -10 60 -55 4 -83 7 -86 11 -2 2 -4 26 -4 53 -1 28 -1 59 -2 70
0 23 0 22 1 90 1 28 1 55 0 60 -1 6 -2 18 -1 28 2 10 -5 17 -16 18 -10 0 -26
2 -35 4 -10 2 -19 -4 -22 -13z"/>
<path d="M1530 742 c-85 -4 -100 -9 -100 -37 0 -26 11 -37 44 -40 11 -1 26 -3
32 -4 8 -1 11 -48 10 -156 -1 -165 -1 -165 50 -165 28 0 26 -13 28 182 0 75 4
139 7 142 3 3 21 8 40 10 19 2 37 4 40 5 7 1 -2 61 -10 62 -20 3 -93 4 -141 1z"/>
<path d="M1760 740 c-17 -4 -24 -13 -23 -26 1 -10 5 -52 8 -93 6 -75 24 -115
57 -126 21 -8 30 -29 34 -89 5 -59 14 -71 48 -62 23 6 26 11 26 52 0 47 25
104 46 104 35 0 55 70 58 205 1 39 0 40 -33 38 -18 -1 -35 -4 -38 -7 -3 -3 -6
-36 -7 -73 -2 -79 -12 -102 -49 -108 -30 -6 -66 22 -68 53 -1 9 -3 37 -4 62
-2 25 -3 50 -4 56 -1 16 -22 22 -51 14z"/>
<path d="M2325 741 c-36 -15 -57 -48 -61 -98 -8 -75 -10 -193 -4 -193 3 0 6
-9 7 -20 3 -34 41 -78 79 -90 92 -31 177 32 183 137 5 81 -4 88 -99 80 -28 -2
-36 -7 -38 -25 -3 -22 13 -52 26 -50 21 2 32 -4 32 -19 0 -28 -14 -42 -47 -49
-24 -5 -36 -1 -53 16 -19 19 -21 31 -19 103 2 88 18 136 47 138 33 2 47 -3 67
-26 29 -33 64 -39 74 -12 11 30 -10 74 -45 98 -30 20 -111 25 -149 10z"/>
<path d="M2627 735 c-21 -10 -22 -18 -27 -177 -6 -206 -5 -213 40 -213 38 0
37 -5 39 118 1 48 10 43 45 -28 44 -86 101 -118 140 -80 13 13 13 20 3 35 -6
11 -18 20 -25 20 -17 0 -34 18 -50 53 -11 27 -10 31 27 68 46 45 59 90 41 144
-17 53 -49 69 -137 70 -41 1 -84 -4 -96 -10z m99 -66 c16 -7 32 -13 36 -13 12
-2 22 -16 25 -36 2 -15 -7 -22 -49 -35 -40 -11 -54 -12 -59 -3 -4 7 -5 16 -3
20 3 5 6 26 6 48 0 22 4 38 8 35 4 -2 20 -10 36 -16z"/>
<path d="M3016 743 c-55 -14 -74 -73 -71 -220 2 -130 14 -157 77 -179 68 -23
138 -3 173 49 37 56 36 246 -2 303 -30 46 -104 66 -177 47z m99 -93 c13 -14
17 -37 18 -92 1 -94 -7 -122 -38 -136 -21 -10 -29 -8 -52 12 -24 20 -27 31
-29 91 -3 72 7 113 33 133 24 17 47 15 68 -8z"/>
<path d="M3355 741 c-54 -23 -73 -85 -68 -226 3 -96 7 -115 30 -141 27 -29 62
-41 114 -38 95 5 130 53 133 183 4 138 -18 199 -78 221 -34 12 -102 12 -131 1z
m100 -96 c14 -13 25 -32 26 -42 6 -117 -3 -159 -41 -178 -26 -13 -30 -13 -51
4 -21 17 -24 28 -25 110 -1 76 2 94 18 111 25 26 44 25 73 -5z"/>
<path d="M3647 737 c-12 -10 -14 -48 -13 -202 l1 -190 25 -1 c48 -1 50 2 50
110 l0 101 30 -35 c55 -65 71 -80 80 -75 5 3 23 28 41 55 18 28 36 50 40 50 4
0 7 -35 7 -77 0 -134 0 -130 27 -136 45 -8 50 13 49 212 -1 100 -4 184 -7 188
-25 24 -97 -11 -97 -48 0 -9 -7 -22 -15 -29 -8 -7 -15 -17 -15 -22 0 -5 -10
-24 -23 -43 l-23 -34 -40 75 c-53 102 -83 128 -117 101z"/>
<path d="M4078 740 c-14 -9 -16 -33 -16 -200 0 -105 3 -190 7 -191 3 0 14 -2
25 -4 42 -8 43 -2 43 196 0 172 -2 191 -18 199 -21 12 -20 12 -41 0z"/>
<path d="M4455 742 c-11 -2 -22 -8 -25 -12 -3 -5 -5 -51 -5 -104 1 -53 -2 -96
-6 -96 -8 0 -89 127 -89 141 0 5 -4 9 -10 9 -5 0 -10 6 -10 14 0 18 -38 46
-62 46 -26 0 -31 -33 -32 -203 -1 -169 3 -197 31 -197 39 0 45 14 46 114 0 53
4 96 8 96 4 0 33 -43 65 -96 60 -100 81 -119 119 -110 22 6 22 6 21 197 -1
203 -3 212 -51 201z"/>
<path d="M4623 726 c-39 -33 -47 -65 -45 -189 3 -148 29 -191 122 -200 88 -9
146 44 154 142 6 69 -8 83 -83 78 -49 -2 -56 -5 -59 -25 -3 -22 13 -52 26 -50
22 2 32 -4 32 -21 0 -29 -25 -48 -61 -47 -48 1 -60 31 -57 134 3 77 5 86 30
107 32 28 65 23 80 -10 11 -24 48 -37 68 -25 24 15 18 49 -14 86 -30 35 -37
38 -97 42 -59 4 -68 2 -96 -22z"/>
<path d="M5148 733 c-31 -20 -59 -80 -53 -113 7 -38 32 -66 72 -84 21 -9 46
-21 55 -26 10 -6 24 -10 32 -10 8 0 17 -12 21 -27 5 -21 2 -32 -15 -45 -25
-20 -45 -14 -82 24 -15 16 -37 28 -51 28 -21 0 -24 -4 -23 -32 2 -47 20 -73
62 -93 64 -30 167 -6 190 45 4 8 8 33 9 55 4 51 -21 86 -77 109 -77 33 -89 40
-100 60 -9 16 -6 23 12 38 19 16 25 16 48 4 15 -8 35 -24 44 -35 19 -22 35
-26 56 -12 34 21 10 91 -40 117 -37 19 -127 17 -160 -3z"/>
<path d="M5520 742 c-77 -6 -78 -6 -82 -72 -1 -33 -1 -60 2 -60 5 0 4 -107 0
-177 -1 -15 -2 -42 -1 -59 l1 -31 121 -2 120 -1 -3 32 -3 33 -77 3 -78 3 0 48
0 49 43 0 c120 0 114 -2 113 42 l-1 40 -60 -1 c-95 -2 -91 -3 -89 39 1 20 3
39 3 42 1 3 33 5 72 4 63 -1 72 1 78 20 19 50 -13 60 -159 48z"/>
<path d="M5778 742 c-25 -5 -27 -19 -26 -217 l0 -180 39 -1 39 -1 0 73 c0 40
4 76 10 79 5 3 25 -25 44 -63 35 -70 67 -96 109 -89 41 7 48 50 10 64 -26 10
-43 29 -54 62 -10 27 -7 33 30 70 23 23 41 47 42 54 0 6 2 21 4 31 5 28 -24
95 -49 108 -19 11 -159 18 -198 10z m135 -86 c45 -18 36 -51 -20 -70 -26 -9
-50 -16 -54 -16 -6 0 -6 97 0 107 2 3 47 -10 74 -21z"/>
<path d="M6094 740 c-20 -8 -19 -13 41 -193 35 -102 66 -190 69 -196 10 -15
63 -14 73 2 10 14 52 124 58 150 2 9 7 22 11 28 4 6 10 25 15 43 4 17 17 61
28 98 21 73 18 81 -35 67 -27 -8 -32 -16 -53 -86 -12 -43 -30 -98 -39 -122
l-16 -44 -18 43 c-10 23 -30 77 -45 119 -23 67 -45 102 -62 100 -3 0 -15 -4
-27 -9z"/>
<path d="M6668 733 c-47 -30 -57 -64 -55 -197 3 -136 10 -155 69 -185 45 -22
106 -19 148 6 26 15 48 55 56 100 3 15 -16 30 -33 27 -7 -1 -19 -2 -25 -3 -7
-1 -20 -14 -29 -30 -22 -37 -64 -46 -90 -18 -16 17 -19 36 -19 103 0 46 4 94
9 107 13 34 46 40 79 13 43 -35 84 -50 93 -34 20 31 0 82 -43 108 -41 25 -122
26 -160 3z"/>
<path d="M6981 740 c-19 -12 -28 -45 -21 -71 6 -19 4 -29 -3 -33 -7 -2 -7 -5
-2 -5 6 -1 9 -24 7 -53 -4 -78 -2 -160 4 -169 3 -5 1 -9 -5 -9 -5 0 -6 -11 -2
-27 l7 -28 115 0 c112 0 114 0 117 24 5 36 -10 43 -87 43 -71 0 -71 0 -70 26
1 15 1 32 -1 37 -7 27 3 32 71 32 75 0 91 9 83 46 -5 30 -10 31 -82 32 l-66 0
-4 43 -3 42 75 0 c42 0 76 3 77 8 5 37 5 62 0 63 -25 4 -204 3 -210 -1z"/>
<path d="M1299 727 c-11 -10 -14 -53 -12 -188 0 -96 1 -179 2 -185 1 -15 45
-23 64 -13 12 7 14 39 13 193 -1 102 -4 187 -6 189 -15 14 -50 16 -61 4z"/>
<path d="M6459 723 c-4 -70 1 -366 5 -371 10 -9 39 -12 58 -6 16 5 17 22 15
187 -2 101 -7 188 -11 195 -12 19 -66 15 -67 -5z"/>
</g>
</svg>
